<?xml version="1.0" standalone="no"?>
<!DOCTYPE svg PUBLIC "-//W3C//DTD SVG 20010904//EN"
 "http://www.w3.org/TR/2001/REC-SVG-20010904/DTD/svg10.dtd">
<svg version="1.0" xmlns="http://www.w3.org/2000/svg"
 width="512.000000pt" height="512.000000pt" viewBox="0 0 512.000000 512.000000"
 preserveAspectRatio="xMidYMid meet">
<metadata>
Created by potrace 1.14, written by Peter Selinger 2001-2017
</metadata>
<g transform="translate(0.000000,512.000000) scale(0.100000,-0.100000)"
fill="#000000" stroke="none">
<path d="M2493 4924 c-43 -25 -52 -45 -135 -289 -11 -33 -24 -69 -28 -80 -5
-11 -20 -54 -33 -95 -14 -41 -60 -174 -102 -295 -180 -517 -226 -651 -230
-665 -14 -62 -73 -138 -108 -141 -34 -3 -246 -8 -522 -13 -1076 -21 -1024 -19
-1062 -36 -62 -28 -93 -127 -56 -180 23 -34 75 -80 91 -80 6 0 12 -4 12 -8 0
-4 37 -35 82 -67 45 -33 86 -65 92 -70 6 -6 56 -45 111 -86 271 -204 390 -294
395 -299 3 -3 23 -18 45 -35 22 -16 45 -33 50 -38 11 -9 264 -200 332 -251 59
-44 76 -90 59 -163 -2 -12 -28 -98 -56 -190 -28 -92 -78 -258 -111 -368 -58
-195 -95 -315 -106 -345 -3 -8 -8 -24 -10 -35 -2 -11 -14 -54 -27 -95 -86
-266 -128 -423 -122 -455 14 -73 96 -124 163 -101 29 10 422 275 538 363 6 5
37 26 70 48 33 22 64 44 70 48 16 13 225 159 275 192 25 17 50 34 55 38 6 5
70 51 144 103 133 93 177 113 223 99 22 -7 126 -75 283 -186 99 -69 174 -121
200 -139 13 -8 67 -46 121 -85 55 -38 106 -74 115 -80 10 -5 58 -39 109 -75
50 -36 99 -69 107 -75 9 -5 24 -16 32 -22 9 -7 52 -38 96 -68 262 -181 260
-180 321 -159 21 7 49 25 61 39 39 44 39 86 3 204 -18 58 -34 113 -36 121 -2
8 -18 60 -35 115 -17 55 -44 145 -61 200 -16 55 -38 127 -48 160 -10 33 -44
146 -75 250 -31 105 -59 197 -62 205 -3 8 -14 42 -24 75 -9 33 -29 99 -43 147
-34 113 -36 137 -16 173 10 19 165 143 406 327 214 163 398 303 409 312 11 9
61 46 110 83 50 37 96 73 103 80 7 7 17 13 20 13 4 0 18 10 32 22 14 13 57 47
97 77 85 64 108 101 101 159 -5 37 -40 97 -56 97 -4 0 -13 4 -21 9 -16 10 -71
13 -471 20 -162 3 -412 9 -555 12 -143 3 -325 6 -405 8 -80 1 -154 7 -165 13
-38 21 -63 58 -88 133 -14 41 -40 116 -57 165 -18 50 -52 149 -77 220 -24 72
-47 137 -50 145 -3 8 -7 20 -9 25 -1 6 -30 89 -64 185 -35 96 -70 200 -80 230
-10 30 -46 133 -79 229 -34 96 -61 176 -61 177 0 10 -49 52 -66 58 -52 16 -82
14 -121 -10z"/>
<path d="M1064 4389 c-78 -74 -162 -158 -190 -192 -50 -59 -24 -113 83 -174
36 -21 76 -45 89 -53 13 -8 78 -49 146 -90 68 -41 125 -78 126 -82 2 -5 8 -8
12 -8 5 0 31 -13 57 -30 59 -38 101 -39 137 -4 39 40 34 75 -24 172 -28 46
-50 85 -50 88 0 3 -13 25 -30 49 -16 24 -30 46 -30 49 0 2 -31 57 -70 122 -38
64 -70 120 -70 123 0 4 -12 21 -27 39 -19 22 -40 35 -65 39 -34 5 -41 1 -94
-48z"/>
<path d="M3838 4423 c-16 -10 -28 -21 -28 -26 0 -4 -11 -24 -24 -45 -53 -84
-126 -213 -126 -222 0 -6 -4 -10 -9 -10 -5 0 -13 -10 -17 -22 -3 -13 -12 -30
-19 -38 -7 -8 -24 -35 -37 -60 -14 -25 -39 -68 -56 -97 -32 -54 -35 -63 -33
-101 2 -34 44 -72 80 -72 32 0 54 10 167 81 38 24 79 49 90 56 143 86 335 208
344 218 6 7 14 29 17 49 5 35 2 39 -123 166 -142 143 -170 159 -226 123z"/>
<path d="M747 2033 c-1 0 -88 -3 -194 -5 -262 -6 -275 -16 -234 -177 13 -47
25 -97 27 -110 3 -14 7 -28 9 -31 2 -4 7 -21 10 -40 9 -49 32 -88 63 -103 39
-19 40 -19 195 67 23 13 58 32 77 43 19 11 98 55 175 98 216 120 214 119 215
177 0 36 -27 75 -54 80 -15 2 -287 3 -289 1z"/>
<path d="M3993 2025 c-23 -10 -34 -23 -42 -50 -5 -20 -7 -44 -4 -53 7 -19 53
-61 67 -62 5 0 17 -6 25 -14 9 -8 43 -28 76 -46 62 -32 93 -49 227 -126 43
-24 82 -44 87 -44 5 0 11 -3 13 -7 7 -17 108 -63 136 -63 47 0 70 27 95 115
13 44 24 82 24 85 1 3 6 25 13 50 34 125 34 153 3 184 -14 14 -33 27 -42 27
-29 2 -232 8 -441 13 -157 3 -213 1 -237 -9z"/>
<path d="M2493 938 c-25 -12 -49 -57 -58 -108 -3 -19 -11 -53 -16 -75 -12 -43
-17 -67 -25 -105 -3 -14 -7 -33 -10 -42 -3 -9 -7 -25 -9 -35 -2 -10 -18 -74
-35 -143 -38 -151 -42 -188 -24 -216 24 -36 53 -41 229 -40 145 1 175 4 198
19 51 33 51 34 -73 497 -17 63 -35 137 -41 164 -18 80 -73 114 -136 84z"/>
</g>
</svg>
